<svg id="Слой_1" data-name="Слой 1" xmlns="http://www.w3.org/2000/svg" viewBox="0 0 1280 477.38"><defs><style>.cls-1{fill:#fff;fill-rule:evenodd;}</style></defs><path class="cls-1" d="M425.46,394.81v10.5a243.59,243.59,0,0,1-182.92,82C108.59,487.29,0,380.43,0,248.61S108.59,9.92,242.54,9.92a243.59,243.59,0,0,1,182.92,82v10.52A235.52,235.52,0,0,0,242.51,15.81C112.65,15.81,7.39,120.05,7.39,248.62s105.26,232.8,235.12,232.8A235.52,235.52,0,0,0,425.46,394.81Zm0-36.41v24.87a228.14,228.14,0,0,1-181.57,89.09c-125.46,0-227.15-99.95-227.15-223.26S118.43,25.83,243.89,25.83a228.1,228.1,0,0,1,181.57,89.11V140.8C387.86,80.19,319.8,39.69,242.08,39.69c-118.41,0-214.41,94-214.41,209.91s96,209.91,214.41,209.91C319.8,459.51,387.86,419,425.46,358.4Z" transform="translate(0 -9.92)"/><path class="cls-1" d="M171.54,324l20.24-.41-1.26-103L303.84,323.79l12.61,0-.05-130.63-19-.1V294.77L184.25,193.27H171.54Z" transform="translate(0 -9.92)"/><path class="cls-1" d="M716.87,233.5h89v74.18h-89Zm-21.61,15.09c0,12.29-1.52,56.85,3.08,66.1,3,6,9,9.33,17.26,9.33h91.53c5.5,0,13-3,15.56-6,2.85-3.38,4.77-10.59,4.77-16.65v-61.6c0-21.61-13.35-23.89-33.05-23.89H728.32c-27.29,0-33.06,5.71-33.06,32.69Z" transform="translate(0 -9.92)"/><path class="cls-1" d="M391.74,233.5h89v74.18h-89Zm-21.61,15.09c0,12.29-1.52,56.85,3.08,66.1,3,6,9,9.33,17.26,9.33H482c5.5,0,13-3,15.56-6,2.85-3.38,4.77-10.59,4.77-16.65v-61.6c0-21.61-13.35-23.89-33.05-23.89h-66.1c-27.28,0-33.05,5.71-33.05,32.69Z" transform="translate(0 -9.92)"/><path class="cls-1" d="M1018.14,324h109.32V307.68h-89V276.25h53.39V259.91h-53.39V233.5h90V215.9H1018.14Z" transform="translate(0 -9.92)"/><path class="cls-1" d="M1163.05,238.53v64.12c0,14.52,6.93,21.37,21.61,21.37h75c21,0,20.34-21.29,20.34-37.39l-21.6-4.09v25.14h-75V233.5h75v22.63l20.91-4.37c0-10.33.38-22.72-4.09-28.62-8.2-10.83-61.24-7.24-79.11-7.24C1176.65,215.9,1163.05,217.74,1163.05,238.53Z" transform="translate(0 -9.92)"/><path class="cls-1" d="M852.88,212.12h59.75V324h22.89V212.12h59.73V193.27H852.88Z" transform="translate(0 -9.92)"/><path class="cls-1" d="M593.57,324H610.1L668.57,215.9H648.23l-45.76,85.49L552.89,215.9l-19.84.5Z" transform="translate(0 -9.92)"/></svg>