<svg id="Слой_1" data-name="Слой 1" xmlns="http://www.w3.org/2000/svg" viewBox="0 0 1280 327.58"><defs><style>.cls-1{fill:#fff;fill-rule:evenodd;}</style></defs><path class="cls-1" d="M288.92,321v7.21A164.69,164.69,0,0,1,164.7,384.44C73.74,384.44,0,311.11,0,220.65S73.74,56.86,164.7,56.86a164.66,164.66,0,0,1,124.22,56.26v7.22A159.28,159.28,0,0,0,164.68,60.91C76.5,60.91,5,132.43,5,220.66S76.5,380.41,164.68,380.41A159.28,159.28,0,0,0,288.92,321Zm0-25v17.06a154.37,154.37,0,0,1-123.3,61.14C80.42,374.2,11.37,305.61,11.37,221S80.42,67.78,165.62,67.78a154.35,154.35,0,0,1,123.3,61.15v17.74A145.83,145.83,0,0,0,164.39,77.3c-80.41,0-145.6,64.48-145.6,144s65.19,144,145.6,144A145.84,145.84,0,0,0,288.92,296Z" transform="translate(0 -56.86)"/><path class="cls-1" d="M116.49,272.41l13.74-.28-.85-70.69,77,70.8,8.56,0,0-89.64L202,182.51v69.82l-76.82-69.65h-8.63Z" transform="translate(0 -56.86)"/><path class="cls-1" d="M486.81,210.29h60.43v50.9H486.81Zm-14.67,10.35c0,8.44-1,39,2.09,45.36,2,4.11,6.09,6.4,11.72,6.4H548.1c3.74,0,8.84-2,10.57-4.1,1.94-2.32,3.24-7.27,3.24-11.43V214.6c0-14.83-9.07-16.39-22.44-16.39H494.58C476.06,198.21,472.14,202.12,472.14,220.64Z" transform="translate(0 -56.86)"/><path class="cls-1" d="M1186.46,196.28h75.26v61.49h-75.26Zm-18.28,12.51c0,10.19-1.29,47.13,2.61,54.8,2.52,5,7.58,7.73,14.59,7.73h77.42c4.65,0,11-2.45,13.16-5,2.42-2.8,4-8.78,4-13.8V201.5c0-17.92-11.29-19.81-28-19.81h-55.92C1173.06,181.69,1168.18,186.42,1168.18,208.79Z" transform="translate(0 -56.86)"/><path class="cls-1" d="M266,210.29h60.43v50.9H266Zm-14.67,10.35c0,8.44-1,39,2.09,45.36,2,4.11,6.09,6.4,11.72,6.4h62.15c3.74,0,8.84-2,10.57-4.1,1.94-2.32,3.24-7.27,3.24-11.43V214.6c0-14.83-9.06-16.39-22.44-16.39H273.79C255.27,198.21,251.35,202.12,251.35,220.64Z" transform="translate(0 -56.86)"/><path class="cls-1" d="M691.39,272.4h74.24V261.19H705.2V239.62h36.26V228.4H705.2V210.29h61.12V198.21H691.39Z" transform="translate(0 -56.86)"/><path class="cls-1" d="M1056,271.32h88.79V257.77h-72.28v-26h43.37V218.17h-43.37V196.28h73.11V181.69H1056Z" transform="translate(0 -56.86)"/><path class="cls-1" d="M789.8,213.74v44c0,10,4.7,14.67,14.67,14.67h50.94c14.26,0,13.81-14.62,13.81-25.66l-14.68-2.81v17.25H803.61v-50.9h50.93v15.53l14.21-3c0-7.08.26-15.58-2.78-19.63-5.57-7.43-41.58-5-53.73-5C799,198.21,789.8,199.47,789.8,213.74Z" transform="translate(0 -56.86)"/><path class="cls-1" d="M579.17,195.62h40.57V272.4h15.55V195.62h40.56V182.68H579.17Z" transform="translate(0 -56.86)"/><path class="cls-1" d="M403.08,272.4H414.3L454,198.21H440.2l-31.08,58.66-33.66-58.66-13.48.34Z" transform="translate(0 -56.86)"/><path class="cls-1" d="M928.88,200.22c0,86.13-10.35,71.42,87,71.42,20.4,0,15.6-25.82,15.6-49.11h-53.5v13.39h35.66v22.32H946.72V198h66.87v11.16l17.84-2.83c2.13-31.59-18.8-21.56-87.15-22.5C933.88,183.81,928.88,189.79,928.88,200.22Z" transform="translate(0 -56.86)"/></svg>