<svg id="Слой_1" data-name="Слой 1" xmlns="http://www.w3.org/2000/svg" viewBox="0 0 1280 482.68"><defs><style>.cls-1{fill:#fff;fill-rule:evenodd;}</style></defs><path class="cls-1" d="M424.66,393v10.61a242.47,242.47,0,0,1-182.93,82.9C107.78,486.54-.81,378.48-.81,245.2S107.78,3.86,241.73,3.86A242.46,242.46,0,0,1,424.66,86.75V97.38a234.55,234.55,0,0,0-183-87.56C111.85,9.82,6.58,115.21,6.58,245.21S111.85,480.59,241.7,480.59A234.55,234.55,0,0,0,424.66,393Zm0-36.81v25.13a227.28,227.28,0,0,1-181.58,90.09c-125.45,0-227.15-101.07-227.15-225.74S117.63,20,243.08,20A227.28,227.28,0,0,1,424.66,110v26.15A214.78,214.78,0,0,0,241.27,34C122.86,34,26.86,129,26.86,246.2s96,212.25,214.41,212.25A214.78,214.78,0,0,0,424.66,356.22Z" transform="translate(0.81 -3.86)"/><path class="cls-1" d="M170.73,321.45l20.25-.4-1.26-104.16L303,321.21l12.61,0,0-132.09-19-.1V291.87L183.45,189.24H170.73Z" transform="translate(0.81 -3.86)"/><path class="cls-1" d="M766.87,406.33H775l-.48-37.61,42,37.62h6.34l0-49.75h-7.66l.05,39.49-42.34-39.49h-6Z" transform="translate(0.81 -3.86)"/><path class="cls-1" d="M1129.1,406.36h8.13l-.48-38.59,42.22,38.6h6.12l-.07-49.75h-8l-.09,37.68-42-37.68h-5.79Z" transform="translate(0.81 -3.86)"/><path class="cls-1" d="M551.34,406.28h8.52l-.47-38.09,42.81,38.09H609l0-50.12-8.65,0,.07,38.26-42.59-38-6.5-.15Z" transform="translate(0.81 -3.86)"/><path class="cls-1" d="M716.06,229.92h89v75h-89Zm-21.61,15.26c0,12.43-1.52,57.48,3.08,66.84,3,6.05,9,9.43,17.26,9.43h91.53c5.5,0,13-3,15.56-6.05,2.86-3.42,4.77-10.7,4.77-16.83V236.28c0-21.85-13.35-24.15-33-24.15h-66.1C700.23,212.13,694.45,217.9,694.45,245.18Z" transform="translate(0.81 -3.86)"/><path class="cls-1" d="M390.94,229.92h89v75h-89Zm-21.61,15.26c0,12.43-1.53,57.48,3.08,66.84,3,6.05,9,9.43,17.25,9.43h91.53c5.5,0,13-3,15.56-6.05,2.86-3.42,4.78-10.7,4.78-16.83V236.28c0-21.85-13.36-24.15-33-24.15h-66.1C375.1,212.13,369.33,217.9,369.33,245.18Z" transform="translate(0.81 -3.86)"/><path class="cls-1" d="M1017.33,321.45h109.32V304.93h-89V273.14h53.38V256.62h-53.38v-26.7h90V212.13H1017.33Z" transform="translate(0.81 -3.86)"/><path class="cls-1" d="M855.05,406.48h49.43V399H864.24V384.64h24.15v-7.47H864.24V365.1h40.7v-8.05H855.05Z" transform="translate(0.81 -3.86)"/><path class="cls-1" d="M931.71,406.48h49.43V399H940.9V384.64h24.15v-7.47H940.9V365.1h40.7v-8.05H931.71Z" transform="translate(0.81 -3.86)"/><path class="cls-1" d="M474.71,406h49.43v-7.48H483.91V384.18h24.14v-7.47H483.91V364.64h40.7v-8.05h-49.9Z" transform="translate(0.81 -3.86)"/><path class="cls-1" d="M1162.24,235v64.83c0,14.68,6.93,21.61,21.62,21.61h75c21,0,20.34-21.53,20.34-37.81l-21.61-4.14v25.43h-75v-75h75v22.89l20.92-4.43c0-10.44.39-23-4.09-28.94-8.2-10.94-61.23-7.31-79.12-7.31C1175.83,212.13,1162.24,214,1162.24,235Z" transform="translate(0.81 -3.86)"/><path class="cls-1" d="M852.08,208.31h59.74V321.45h22.89V208.31h59.73V189.25H852.08Z" transform="translate(0.81 -3.86)"/><path class="cls-1" d="M592.77,321.45h16.52l58.47-109.32H647.43l-45.77,86.44-49.57-86.44-19.84.5Z" transform="translate(0.81 -3.86)"/><path class="cls-1" d="M638.52,366c0,49.06-5.29,40.68,49.58,40.68,11.63,0,8.9-14.71,8.9-28H666.49v7.62h20.34V399H648.69V364.67h38.14V371l10.07-1.61c1.18-15.93-9.78-12.37-49.47-12.37Q638.52,357.05,638.52,366Z" transform="translate(0.81 -3.86)"/><path class="cls-1" d="M1215.56,366.29c0,49.06-5.9,40.68,49.58,40.68,11.63,0,8.89-14.71,8.89-28h-30.5v7.63h20.33v12.72h-38.13V365h38.13v6.36l10.17-1.61c1.22-18-10.72-12.29-49.68-12.82C1218.41,356.94,1215.56,360.35,1215.56,366.29Z" transform="translate(0.81 -3.86)"/><path class="cls-1" d="M1044,379.93h-26.69V364.68c34.88,0,30.51-3.17,30.51,11.43C1047.84,379,1047,379.93,1044,379.93Zm-36.87,26.7h10.18l-.2-19.21,15.78.1,18.27,19,11.91.14-20.34-19.07c18,0,15.26-3.08,15.26-26.7-.56-2.22-3.12-3.63-6.36-3.81h-44.5Z" transform="translate(0.81 -3.86)"/><path class="cls-1" d="M1087.24,406.62h10.17V357h-10.17Z" transform="translate(0.81 -3.86)"/><path class="cls-1" d="M725,406.62h10.17V357H725Z" transform="translate(0.81 -3.86)"/></svg>