<?xml version="1.0" encoding="utf-8"?>
<!-- Generator: Adobe Illustrator 24.2.3, SVG Export Plug-In . SVG Version: 6.00 Build 0)  -->
<svg version="1.1" id="Слой_1" xmlns="http://www.w3.org/2000/svg" xmlns:xlink="http://www.w3.org/1999/xlink" x="0px" y="0px"
	 viewBox="0 0 874.8 326.4" style="enable-background:new 0 0 874.8 326.4;" xml:space="preserve">
<style type="text/css">
	.st0{fill-rule:evenodd;clip-rule:evenodd;fill:#0000FC;}
	.st1{fill-rule:evenodd;clip-rule:evenodd;fill:#303F79;}
	.st2{fill-rule:evenodd;clip-rule:evenodd;fill:#ED3237;}
	.st3{clip-path:url(#SVGID_2_);fill-rule:evenodd;clip-rule:evenodd;fill:#303F79;}
	.st4{clip-path:url(#SVGID_2_);fill-rule:evenodd;clip-rule:evenodd;fill:#ED3237;}
	.st5{clip-path:url(#SVGID_4_);}
	.st6{fill-rule:evenodd;clip-rule:evenodd;fill:#FFFFFF;}
	.st7{clip-path:url(#SVGID_6_);}
</style>
<path class="st1" d="M292.3,263.2v7.2c-30.1,34.3-74.3,56.1-123.7,56.1c-90.6,0-164-73.1-164-163.2C4.6,73.1,78,0,168.6,0
	c49.4,0,93.6,21.7,123.7,56.1v7.2C263.2,27.1,218.6,4,168.6,4C80.8,4,9.6,75.3,9.6,163.2s71.2,159.2,159,159.2
	C218.6,322.4,263.2,299.3,292.3,263.2z M292.3,238.3v17c-28,37-72.6,60.9-122.8,60.9c-84.8,0-153.6-68.4-153.6-152.7
	c0-84.3,68.8-152.7,153.6-152.7c50.2,0,94.8,23.9,122.8,60.9v17.7c-25.4-41.4-71.5-69.1-124-69.1c-80.1,0-145,64.3-145,143.5
	c0,79.3,64.9,143.5,145,143.5C220.9,307.4,266.9,279.7,292.3,238.3z"/>
<path class="st1" d="M120.6,214.8l13.7-0.3l-0.9-70.4l76.6,70.6l8.5,0l0-89.3l-12.9-0.1l0,69.6l-76.5-69.4h-8.6V214.8z"/>
<path class="st1" d="M523.7,272.2h5.5l-0.3-25.4l28.4,25.4l4.3,0l0-33.6h-5.2l0,26.7l-28.6-26.7h-4V272.2z"/>
<path class="st1" d="M768.7,272.2h5.5l-0.3-26.1l28.6,26.1l4.1,0l0-33.6h-5.4l-0.1,25.5l-28.4-25.5h-3.9V272.2z"/>
<path class="st1" d="M378,272.2h5.8l-0.3-25.8l29,25.8l4.6,0l0-33.9l-5.9,0l0,25.9l-28.8-25.7l-4.4-0.1V272.2z"/>
<path class="st1" d="M489.4,152.9h60.2v50.7h-60.2V152.9z M474.8,163.2c0,8.4-1,38.9,2.1,45.2c2,4.1,6.1,6.4,11.7,6.4h61.9
	c3.7,0,8.8-2,10.5-4.1c1.9-2.3,3.2-7.2,3.2-11.4v-42.1c0-14.8-9-16.3-22.4-16.3h-44.7C478.7,140.9,474.8,144.8,474.8,163.2
	L474.8,163.2z"/>
<path class="st1" d="M269.5,152.9h60.2v50.7h-60.2V152.9z M254.9,163.2c0,8.4-1,38.9,2.1,45.2c2,4.1,6.1,6.4,11.7,6.4h61.9
	c3.7,0,8.8-2,10.5-4.1c1.9-2.3,3.2-7.2,3.2-11.4v-42.1c0-14.8-9-16.3-22.3-16.3h-44.7C258.8,140.9,254.9,144.8,254.9,163.2
	L254.9,163.2z"/>
<path class="st2" d="M693.1,214.8h73.9v-11.2h-60.2v-21.5H743v-11.2h-36.1v-18.1h60.9v-12h-74.6V214.8z"/>
<path class="st1" d="M583.4,272.3h33.4v-5.1h-27.2v-9.7h16.3v-5.1h-16.3v-8.2h27.5v-5.4h-33.7V272.3z"/>
<path class="st1" d="M635.2,272.3h33.4v-5.1h-27.2v-9.7h16.3v-5.1h-16.3v-8.2H669v-5.4h-33.7V272.3z"/>
<path class="st1" d="M326.2,272h33.4v-5.1h-27.2v-9.7h16.3v-5.1h-16.3V244h27.5v-5.4h-33.7V272z"/>
<path class="st2" d="M791.1,156.3v43.8c0,9.9,4.7,14.6,14.6,14.6h50.7c14.2,0,13.8-14.6,13.8-25.6l-14.6-2.8v17.2h-50.7v-50.7h50.7
	v15.5l14.1-3c0-7.1,0.3-15.5-2.8-19.6c-5.5-7.4-41.4-4.9-53.5-4.9C800.3,140.9,791.1,142.1,791.1,156.3z"/>
<path class="st2" d="M581.4,138.3h40.4v76.5h15.5v-76.5h40.4v-12.9h-96.3V138.3z"/>
<path class="st1" d="M406,214.8h11.2l39.5-73.9H443L412,199.3l-33.5-58.5l-13.4,0.3L406,214.8z"/>
<path class="st1" d="M436.9,244.9c0,33.2-3.6,27.5,33.5,27.5c7.9,0,6-9.9,6-18.9h-20.6v5.2h13.8v8.6h-25.8V244h25.8v4.3l6.8-1.1
	c0.8-10.8-6.6-8.4-33.5-8.4C439,238.9,436.9,240.9,436.9,244.9z"/>
<path class="st1" d="M827.2,245.1c0,33.2-4,27.5,33.5,27.5c7.9,0,6-9.9,6-18.9h-20.6v5.2h13.8v8.6h-25.8v-23.2h25.8v4.3l6.9-1.1
	c0.8-12.2-7.3-8.3-33.6-8.7C829.1,238.8,827.2,241.1,827.2,245.1z"/>
<path class="st1" d="M711.2,254.3h-18.1V244c23.6,0,20.6-2.1,20.6,7.7C713.8,253.7,713.2,254.3,711.2,254.3z M686.2,272.4h6.9
	l-0.1-13l10.7,0.1l12.4,12.8l8.1,0.1l-13.8-12.9c12.1,0,10.3-2.1,10.3-18.1c-0.4-1.5-2.1-2.5-4.3-2.6h-30.1V272.4L686.2,272.4z"/>
<path class="st1" d="M740.4,272.4h6.9v-33.5h-6.9V272.4z"/>
<path class="st1" d="M495.4,272.4h6.9v-33.5h-6.9V272.4z"/>
</svg>
