<?xml version="1.0" encoding="utf-8"?>
<!-- Generator: Adobe Illustrator 24.2.3, SVG Export Plug-In . SVG Version: 6.00 Build 0)  -->
<svg version="1.1" id="Слой_1" xmlns="http://www.w3.org/2000/svg" xmlns:xlink="http://www.w3.org/1999/xlink" x="0px" y="0px"
	 viewBox="0 0 874.8 326.4" style="enable-background:new 0 0 874.8 326.4;" xml:space="preserve">
<style type="text/css">
	.st0{fill-rule:evenodd;clip-rule:evenodd;fill:#0000FC;}
	.st1{fill-rule:evenodd;clip-rule:evenodd;fill:#303F79;}
	.st2{fill-rule:evenodd;clip-rule:evenodd;fill:#ED3237;}
	.st3{clip-path:url(#SVGID_2_);fill-rule:evenodd;clip-rule:evenodd;fill:#303F79;}
	.st4{clip-path:url(#SVGID_2_);fill-rule:evenodd;clip-rule:evenodd;fill:#ED3237;}
	.st5{clip-path:url(#SVGID_4_);}
	.st6{fill-rule:evenodd;clip-rule:evenodd;fill:#FFFFFF;}
	.st7{clip-path:url(#SVGID_6_);}
</style>
<path class="st1" d="M290.7,263.2v7.2c-30.4,34.3-75.2,56.1-125.1,56.1C74,326.4-0.2,253.4-0.2,163.2C-0.2,73.1,74,0,165.6,0
	c49.9,0,94.7,21.7,125.1,56.1v7.2C261.2,27.1,216.1,4,165.6,4C76.8,4,4.8,75.3,4.8,163.2c0,87.9,72,159.2,160.8,159.2
	C216.1,322.4,261.2,299.3,290.7,263.2z M290.7,238.3v17c-28.3,37-73.4,60.9-124.2,60.9c-85.8,0-155.3-68.4-155.3-152.7
	c0-84.3,69.5-152.7,155.3-152.7c50.8,0,95.8,23.9,124.2,60.9v17.7C265,48.1,218.4,20.4,165.3,20.4c-81,0-146.6,64.3-146.6,143.5
	c0,79.3,65.6,143.5,146.6,143.5C218.4,307.4,265,279.7,290.7,238.3z"/>
<path class="st1" d="M117.1,214.8l13.8-0.3l-0.9-70.4l77.5,70.6l8.6,0l0-89.3l-13-0.1l0,69.6l-77.4-69.4h-8.7V214.8z"/>
<path class="st1" d="M490,152.9h60.8v50.7H490V152.9z M475.2,163.2c0,8.4-1,38.9,2.1,45.2c2,4.1,6.1,6.4,11.8,6.4h62.6
	c3.8,0,8.9-2,10.6-4.1c2-2.3,3.3-7.2,3.3-11.4v-42.1c0-14.8-9.1-16.3-22.6-16.3h-45.2C479.1,140.9,475.2,144.8,475.2,163.2
	L475.2,163.2z"/>
<path class="st1" d="M267.6,152.9h60.8v50.7h-60.8V152.9z M252.9,163.2c0,8.4-1,38.9,2.1,45.2c2,4.1,6.1,6.4,11.8,6.4h62.6
	c3.8,0,8.9-2,10.6-4.1c2-2.3,3.3-7.2,3.3-11.4v-42.1c0-14.8-9.1-16.3-22.6-16.3h-45.2C256.8,140.9,252.9,144.8,252.9,163.2
	L252.9,163.2z"/>
<path class="st2" d="M696,214.8h74.8v-11.2h-60.8v-21.5h36.5v-11.2h-36.5v-18.1h61.5v-12H696V214.8z"/>
<path class="st2" d="M795.1,156.3v43.8c0,9.9,4.7,14.6,14.8,14.6h51.3c14.4,0,13.9-14.6,13.9-25.6l-14.8-2.8v17.2H809v-50.7h51.3
	v15.5l14.3-3c0-7.1,0.3-15.5-2.8-19.6c-5.6-7.4-41.9-4.9-54.1-4.9C804.4,140.9,795.1,142.1,795.1,156.3z"/>
<path class="st2" d="M583,138.3h40.9v76.5h15.6v-76.5h40.8v-12.9H583V138.3z"/>
<path class="st1" d="M405.7,214.8h11.3l40-73.9H443l-31.3,58.5l-33.9-58.5l-13.6,0.3L405.7,214.8z"/>
</svg>
