<?xml version="1.0" encoding="utf-8"?>
<!-- Generator: Adobe Illustrator 24.2.3, SVG Export Plug-In . SVG Version: 6.00 Build 0)  -->
<svg version="1.1" id="Слой_1" xmlns="http://www.w3.org/2000/svg" xmlns:xlink="http://www.w3.org/1999/xlink" x="0px" y="0px"
	 viewBox="0 0 1282.5 326.4" style="enable-background:new 0 0 1282.5 326.4;" xml:space="preserve">
<style type="text/css">
	.st0{fill-rule:evenodd;clip-rule:evenodd;fill:#0000FC;}
	.st1{fill-rule:evenodd;clip-rule:evenodd;fill:#303F79;}
	.st2{fill-rule:evenodd;clip-rule:evenodd;fill:#ED3237;}
	.st3{clip-path:url(#SVGID_2_);fill-rule:evenodd;clip-rule:evenodd;fill:#303F79;}
	.st4{clip-path:url(#SVGID_2_);fill-rule:evenodd;clip-rule:evenodd;fill:#ED3237;}
	.st5{clip-path:url(#SVGID_4_);}
	.st6{fill-rule:evenodd;clip-rule:evenodd;fill:#FFFFFF;}
	.st7{clip-path:url(#SVGID_6_);}
</style>
<g>
	<defs>
		<rect id="SVGID_1_" x="1.1" y="-9.5" width="1281.4" height="345.5"/>
	</defs>
	<clipPath id="SVGID_2_">
		<use xlink:href="#SVGID_1_"  style="overflow:visible;"/>
	</clipPath>
	<path class="st3" d="M296.7,262.8v7.2c-30,34.3-74.2,56-123.6,56C82.7,325.9,9.3,252.9,9.3,163C9.3,73,82.7,0,173.1,0
		c49.3,0,93.5,21.7,123.6,56v7.2C267.6,27.1,223,4.1,173.1,4.1C85.4,4.1,14.3,75.2,14.3,163c0,87.8,71.1,158.9,158.8,158.9
		C223,321.9,267.6,298.8,296.7,262.8z M296.7,237.9v17c-28,36.9-72.5,60.8-122.6,60.8c-84.7,0-153.4-68.2-153.4-152.4
		C20.6,79.1,89.3,10.9,174,10.9c50.1,0,94.6,23.9,122.6,60.8v17.7c-25.4-41.4-71.4-69-123.9-69C92.8,20.4,28,84.5,28,163.6
		c0,79.1,64.8,143.3,144.8,143.3C225.3,306.9,271.3,279.3,296.7,237.9z"/>
	<path class="st3" d="M125.2,214.4l13.7-0.3l-0.9-70.3l76.5,70.4l8.5,0l0-89.2l-12.8-0.1l0,69.5l-76.4-69.3h-8.6V214.4z"/>
	<path class="st3" d="M493.5,152.7h60.1v50.6h-60.1V152.7z M478.9,162.9c0,8.4-1,38.8,2.1,45.1c2,4.1,6.1,6.4,11.7,6.4h61.8
		c3.7,0,8.8-2,10.5-4.1c1.9-2.3,3.2-7.2,3.2-11.4v-42c0-14.8-9-16.3-22.3-16.3h-44.6C482.8,140.6,478.9,144.5,478.9,162.9
		L478.9,162.9z"/>
	<path class="st3" d="M1189.5,138.7h74.9v61.2h-74.9V138.7z M1171.3,151.2c0,10.1-1.3,46.9,2.6,54.5c2.5,4.9,7.5,7.7,14.5,7.7h77
		c4.6,0,11-2.4,13.1-4.9c2.4-2.8,4-8.7,4-13.7v-50.8c0-17.8-11.2-19.7-27.8-19.7h-55.6C1176.1,124.2,1171.3,128.9,1171.3,151.2
		L1171.3,151.2z"/>
	<path class="st3" d="M273.9,152.7H334v50.6h-60.1V152.7z M259.3,162.9c0,8.4-1,38.8,2.1,45.1c2,4.1,6.1,6.4,11.7,6.4h61.8
		c3.7,0,8.8-2,10.5-4.1c1.9-2.3,3.2-7.2,3.2-11.4v-42c0-14.8-9-16.3-22.3-16.3h-44.6C263.2,140.6,259.3,144.5,259.3,162.9
		L259.3,162.9z"/>
	<path class="st4" d="M697,214.4h73.8v-11.2h-60.1v-21.5h36.1v-11.2h-36.1v-18h60.8v-12H697V214.4z"/>
	<path class="st3" d="M1059.6,213.4h88.3v-13.5h-71.9V174h43.1v-13.5h-43.1v-21.8h72.7v-14.5h-89.1V213.4z"/>
	<path class="st4" d="M794.9,156.1v43.8c0,9.9,4.7,14.6,14.6,14.6h50.7c14.2,0,13.7-14.5,13.7-25.5l-14.6-2.8v17.2h-50.7v-50.6h50.7
		v15.4l14.1-3c0-7,0.3-15.5-2.8-19.5c-5.5-7.4-41.4-4.9-53.4-4.9C804.1,140.6,794.9,141.9,794.9,156.1z"/>
	<path class="st4" d="M585.4,138.1h40.4v76.4h15.5v-76.4h40.4v-12.9h-96.2V138.1z"/>
	<path class="st3" d="M410.2,214.4h11.2l39.5-73.8h-13.7L416.3,199l-33.5-58.4l-13.4,0.3L410.2,214.4z"/>
	<path class="st3" d="M933.3,142.6c0,85.7-10.3,71,86.5,71c20.3,0,15.5-25.7,15.5-48.8H982v13.3h35.5v22.2H951v-59.9h66.5v11.1
		l17.7-2.8c2.1-31.4-18.7-21.4-86.7-22.4C938.2,126.3,933.3,132.3,933.3,142.6z"/>
</g>
</svg>
