<?xml version="1.0" encoding="utf-8"?>
<!-- Generator: Adobe Illustrator 24.2.3, SVG Export Plug-In . SVG Version: 6.00 Build 0)  -->
<svg version="1.1" id="Слой_1" xmlns="http://www.w3.org/2000/svg" xmlns:xlink="http://www.w3.org/1999/xlink" x="0px" y="0px"
	 viewBox="0 0 1273.7 326.4" style="enable-background:new 0 0 1273.7 326.4;" xml:space="preserve">
<style type="text/css">
	.st0{fill-rule:evenodd;clip-rule:evenodd;fill:#0000FC;}
	.st1{fill-rule:evenodd;clip-rule:evenodd;fill:#5F9650;}
	.st2{fill-rule:evenodd;clip-rule:evenodd;fill:#0019FF;}
	.st3{clip-path:url(#SVGID_2_);}
	.st4{fill-rule:evenodd;clip-rule:evenodd;fill:#FFFFFF;}
	.st5{clip-path:url(#SVGID_4_);}
	.st6{clip-path:url(#SVGID_6_);}
</style>
<g>
	<defs>
		<rect id="SVGID_1_" x="-7.8" y="-9.5" width="1281.4" height="345.5"/>
	</defs>
	<clipPath id="SVGID_2_">
		<use xlink:href="#SVGID_1_"  style="overflow:visible;"/>
	</clipPath>
	<g class="st3">
		<path class="st4" d="M287.9,262.7v7.2c-30,34.3-74.2,56-123.6,56C73.8,325.9,0.5,252.9,0.5,163C0.5,73,73.8,0,164.3,0
			c49.3,0,93.5,21.7,123.6,56v7.2C258.8,27.1,214.2,4.1,164.3,4.1C76.6,4.1,5.5,75.2,5.5,163c0,87.8,71.1,158.9,158.8,158.9
			C214.2,321.9,258.8,298.8,287.9,262.7z M287.9,237.9v17c-28,36.9-72.5,60.8-122.6,60.8c-84.7,0-153.4-68.2-153.4-152.4
			c0-84.2,68.7-152.4,153.4-152.4c50.1,0,94.6,23.9,122.6,60.8v17.7c-25.4-41.4-71.4-69-123.9-69c-80,0-144.8,64.1-144.8,143.3
			c0,79.1,64.8,143.3,144.8,143.3C216.5,306.9,262.5,279.3,287.9,237.9z"/>
		<path class="st4" d="M116.4,214.4l13.7-0.3l-0.9-70.3l76.5,70.4l8.5,0l0-89.2l-12.8-0.1l0,69.5L125,125.2h-8.6V214.4z"/>
		<path class="st4" d="M484.7,152.6h60.1v50.6h-60.1V152.6z M470.1,162.9c0,8.4-1,38.8,2.1,45.1c2,4.1,6.1,6.4,11.7,6.4h61.8
			c3.7,0,8.8-2,10.5-4.1c1.9-2.3,3.2-7.2,3.2-11.4v-42c0-14.8-9-16.3-22.3-16.3h-44.6C474,140.6,470.1,144.5,470.1,162.9
			L470.1,162.9z"/>
		<path class="st4" d="M1180.6,138.7h74.9v61.2h-74.9V138.7z M1162.5,151.2c0,10.1-1.3,46.9,2.6,54.5c2.5,4.9,7.5,7.7,14.5,7.7h77
			c4.6,0,11-2.4,13.1-4.9c2.4-2.8,4-8.7,4-13.7v-50.8c0-17.8-11.2-19.7-27.8-19.7h-55.6C1167.3,124.2,1162.5,128.9,1162.5,151.2
			L1162.5,151.2z"/>
		<path class="st4" d="M265.1,152.6h60.1v50.6h-60.1V152.6z M250.5,162.9c0,8.4-1,38.8,2.1,45.1c2,4.1,6.1,6.4,11.7,6.4h61.8
			c3.7,0,8.8-2,10.5-4.1c1.9-2.3,3.2-7.2,3.2-11.4v-42c0-14.8-9-16.3-22.3-16.3h-44.6C254.4,140.6,250.5,144.5,250.5,162.9
			L250.5,162.9z"/>
		<path class="st4" d="M688.2,214.4h73.8v-11.2H702v-21.5H738v-11.2H702v-18h60.8v-12h-74.5V214.4z"/>
		<path class="st4" d="M1050.8,213.4h88.3v-13.5h-71.9V174h43.1v-13.5h-43.1v-21.8h72.7v-14.5h-89.1V213.4z"/>
		<path class="st4" d="M786.1,156.1v43.8c0,9.9,4.7,14.6,14.6,14.6h50.7c14.2,0,13.7-14.5,13.7-25.5l-14.6-2.8v17.2h-50.7v-50.6
			h50.7v15.4l14.1-3c0-7,0.3-15.5-2.8-19.5c-5.5-7.4-41.4-4.9-53.4-4.9C795.3,140.6,786.1,141.9,786.1,156.1z"/>
		<path class="st4" d="M576.6,138.1h40.4v76.4h15.5v-76.4h40.4v-12.9h-96.2V138.1z"/>
		<path class="st4" d="M401.4,214.4h11.2l39.5-73.8h-13.7L407.4,199L374,140.6l-13.4,0.3L401.4,214.4z"/>
		<path class="st4" d="M924.4,142.6c0,85.7-10.3,71,86.5,71c20.3,0,15.5-25.7,15.5-48.8h-53.2v13.3h35.5v22.2h-66.5v-59.9h66.5v11.1
			l17.7-2.8c2.1-31.4-18.7-21.4-86.7-22.4C929.4,126.3,924.4,132.3,924.4,142.6z"/>
	</g>
</g>
</svg>
