<?xml version="1.0" encoding="utf-8"?>
<!-- Generator: Adobe Illustrator 24.2.3, SVG Export Plug-In . SVG Version: 6.00 Build 0)  -->
<svg version="1.1" id="Слой_1" xmlns="http://www.w3.org/2000/svg" xmlns:xlink="http://www.w3.org/1999/xlink" x="0px" y="0px"
	 viewBox="0 0 870.9 327.6" style="enable-background:new 0 0 870.9 327.6;" xml:space="preserve">
<style type="text/css">
	.st0{fill-rule:evenodd;clip-rule:evenodd;fill:#0000FC;}
	.st1{fill-rule:evenodd;clip-rule:evenodd;fill:#0000FF;}
	.st2{fill-rule:evenodd;clip-rule:evenodd;fill:#FFFFFF;}
	.st3{clip-path:url(#SVGID_2_);}
	.st4{clip-path:url(#SVGID_4_);}
	.st5{clip-path:url(#SVGID_6_);}
</style>
<path class="st2" d="M290.3,263.2v7.1c-30.2,34.1-74.7,55.7-124.3,55.7c-91,0-164.8-72.6-164.8-162.2C1.2,74.3,75,1.7,166,1.7
	c49.6,0,94.1,21.6,124.3,55.7v7.1C261,28.7,216.2,5.7,166,5.7C77.8,5.7,6.2,76.5,6.2,163.9c0,87.4,71.5,158.2,159.7,158.2
	C216.2,322.1,261,299.1,290.3,263.2z M290.3,238.5v16.9c-28.2,36.8-72.9,60.5-123.4,60.5c-85.2,0-154.3-67.9-154.3-151.7
	c0-83.8,69.1-151.7,154.3-151.7c50.4,0,95.2,23.8,123.4,60.5v17.6c-25.5-41.2-71.8-68.7-124.6-68.7C85.2,21.9,20,85.8,20,164.6
	c0,78.8,65.2,142.6,145.7,142.6C218.5,307.2,264.7,279.7,290.3,238.5z"/>
<path class="st2" d="M117.8,215.1l13.8-0.3l-0.9-70l77,70.1l8.6,0l0-88.8l-12.9-0.1l0,69.1l-76.9-69h-8.6V215.1z"/>
<path class="st2" d="M488.3,153.6h60.5V204h-60.5V153.6z M473.6,163.9c0,8.4-1,38.6,2.1,44.9c2,4.1,6.1,6.3,11.7,6.3h62.2
	c3.7,0,8.8-2,10.6-4.1c1.9-2.3,3.2-7.2,3.2-11.3v-41.9c0-14.7-9.1-16.2-22.5-16.2h-44.9C477.5,141.7,473.6,145.5,473.6,163.9
	L473.6,163.9z"/>
<path class="st2" d="M267.4,153.6h60.5V204h-60.5V153.6z M252.7,163.9c0,8.4-1,38.6,2.1,44.9c2,4.1,6.1,6.3,11.7,6.3h62.2
	c3.7,0,8.8-2,10.6-4.1c1.9-2.3,3.2-7.2,3.2-11.3v-41.9c0-14.7-9.1-16.2-22.5-16.2h-44.9C256.6,141.7,252.7,145.5,252.7,163.9
	L252.7,163.9z"/>
<path class="st2" d="M693,215.1h74.3V204h-60.5v-21.4h36.3v-11.1h-36.3v-17.9h61.2v-12h-75V215.1z"/>
<path class="st2" d="M791.4,157v43.6c0,9.9,4.7,14.5,14.7,14.5h51c14.3,0,13.8-14.5,13.8-25.4l-14.7-2.8V204h-51v-50.4h51V169
	l14.2-3c0-7,0.3-15.4-2.8-19.4c-5.6-7.4-41.6-4.9-53.8-4.9C800.7,141.7,791.4,142.9,791.4,157z"/>
<path class="st2" d="M580.7,139.1h40.6v76h15.5v-76h40.6v-12.8h-96.7V139.1z"/>
<path class="st2" d="M404.5,215.1h11.2l39.7-73.5h-13.8l-31.1,58.1l-33.7-58.1l-13.5,0.3L404.5,215.1z"/>
</svg>
