<?xml version="1.0" encoding="utf-8"?>
<!-- Generator: Adobe Illustrator 24.2.3, SVG Export Plug-In . SVG Version: 6.00 Build 0)  -->
<svg version="1.1" id="Слой_1" xmlns="http://www.w3.org/2000/svg" xmlns:xlink="http://www.w3.org/1999/xlink" x="0px" y="0px"
	 viewBox="0 0 866.5 327.6" style="enable-background:new 0 0 866.5 327.6;" xml:space="preserve">
<style type="text/css">
	.st0{fill-rule:evenodd;clip-rule:evenodd;fill:#0000FC;}
	.st1{fill-rule:evenodd;clip-rule:evenodd;fill:#FFFFFF;}
	.st2{clip-path:url(#SVGID_2_);}
	.st3{clip-path:url(#SVGID_4_);}
	.st4{clip-path:url(#SVGID_6_);}
</style>
<path class="st1" d="M288.6,263.4v7.2c-30.1,34.3-74.3,56.1-123.7,56.1c-90.6,0-164-73.1-164-163.2c0-90.1,73.4-163.2,164-163.2
	c49.4,0,93.6,21.7,123.7,56.1v7.2C259.5,27.4,214.9,4.3,164.9,4.3c-87.8,0-159,71.3-159,159.2s71.2,159.2,159,159.2
	C214.9,322.6,259.5,299.5,288.6,263.4z M288.6,238.5v17c-28,37-72.6,60.9-122.8,60.9c-84.8,0-153.6-68.4-153.6-152.7
	C12.2,79.5,81,11.1,165.8,11.1C216,11.1,260.6,35,288.6,72v17.7c-25.4-41.4-71.5-69.1-124-69.1c-80.1,0-145,64.3-145,143.5
	c0,79.3,64.9,143.5,145,143.5C217.2,307.7,263.2,280,288.6,238.5z"/>
<path class="st1" d="M116.9,215l13.7-0.3l-0.9-70.4l76.6,70.6l8.5,0l0-89.3l-12.9-0.1l0,69.6l-76.5-69.4h-8.6V215z"/>
<path class="st1" d="M520.1,272.4h5.5l-0.3-25.4l28.4,25.4l4.3,0l0-33.6h-5.2l0,26.7l-28.6-26.7h-4V272.4z"/>
<path class="st1" d="M765,272.4h5.5l-0.3-26.1l28.6,26.1l4.1,0l0-33.6h-5.4l-0.1,25.5L769,238.8H765V272.4z"/>
<path class="st1" d="M374.3,272.4h5.8l-0.3-25.8l29,25.8l4.6,0l0-33.9l-5.9,0l0,25.9l-28.8-25.7l-4.4-0.1V272.4z"/>
<path class="st1" d="M485.7,153.1h60.2v50.7h-60.2V153.1z M471.1,163.4c0,8.4-1,38.9,2.1,45.2c2,4.1,6.1,6.4,11.7,6.4h61.9
	c3.7,0,8.8-2,10.5-4.1c1.9-2.3,3.2-7.2,3.2-11.4v-42.1c0-14.8-9-16.3-22.4-16.3h-44.7C475,141.1,471.1,145,471.1,163.4L471.1,163.4z
	"/>
<path class="st1" d="M265.8,153.1H326v50.7h-60.2V153.1z M251.2,163.4c0,8.4-1,38.9,2.1,45.2c2,4.1,6.1,6.4,11.7,6.4h61.9
	c3.7,0,8.8-2,10.5-4.1c1.9-2.3,3.2-7.2,3.2-11.4v-42.1c0-14.8-9-16.3-22.3-16.3h-44.7C255.1,141.1,251.2,145,251.2,163.4
	L251.2,163.4z"/>
<path class="st1" d="M689.5,215h73.9v-11.2h-60.2v-21.5h36.1v-11.2h-36.1v-18.1h60.9v-12h-74.6V215z"/>
<path class="st1" d="M579.7,272.5h33.4v-5.1h-27.2v-9.7h16.3v-5.1h-16.3v-8.2h27.5v-5.4h-33.7V272.5z"/>
<path class="st1" d="M631.5,272.5H665v-5.1h-27.2v-9.7h16.3v-5.1h-16.3v-8.2h27.5v-5.4h-33.7V272.5z"/>
<path class="st1" d="M322.5,272.2h33.4v-5.1h-27.2v-9.7H345v-5.1h-16.3v-8.2h27.5v-5.4h-33.7V272.2z"/>
<path class="st1" d="M787.5,156.5v43.8c0,9.9,4.7,14.6,14.6,14.6h50.7c14.2,0,13.8-14.6,13.8-25.6l-14.6-2.8v17.2h-50.7v-50.7h50.7
	v15.5l14.1-3c0-7.1,0.3-15.5-2.8-19.6c-5.5-7.4-41.4-4.9-53.5-4.9C796.6,141.1,787.5,142.3,787.5,156.5z"/>
<path class="st1" d="M577.7,138.5h40.4V215h15.5v-76.5H674v-12.9h-96.3V138.5z"/>
<path class="st1" d="M402.3,215h11.2l39.5-73.9h-13.8l-30.9,58.5l-33.5-58.5l-13.4,0.3L402.3,215z"/>
<path class="st1" d="M433.3,245.1c0,33.2-3.6,27.5,33.5,27.5c7.9,0,6-9.9,6-18.9h-20.6v5.2h13.8v8.6h-25.8v-23.2h25.8v4.3l6.8-1.1
	c0.8-10.8-6.6-8.4-33.5-8.4C435.3,239.1,433.3,241.1,433.3,245.1z"/>
<path class="st1" d="M823.5,245.3c0,33.2-4,27.5,33.5,27.5c7.9,0,6-9.9,6-18.9h-20.6v5.2h13.8v8.6h-25.8v-23.2h25.8v4.3l6.9-1.1
	c0.8-12.2-7.3-8.3-33.6-8.7C825.4,239,823.5,241.3,823.5,245.3z"/>
<path class="st1" d="M707.5,254.6h-18.1v-10.3c23.6,0,20.6-2.1,20.6,7.7C710.1,254,709.5,254.6,707.5,254.6z M682.6,272.6h6.9
	l-0.1-13l10.7,0.1l12.4,12.8l8.1,0.1l-13.8-12.9c12.1,0,10.3-2.1,10.3-18.1c-0.4-1.5-2.1-2.5-4.3-2.6h-30.1V272.6L682.6,272.6z"/>
<path class="st1" d="M736.7,272.6h6.9v-33.5h-6.9V272.6z"/>
<path class="st1" d="M491.7,272.6h6.9v-33.5h-6.9V272.6z"/>
</svg>
