<?xml version="1.0" encoding="utf-8"?>
<!-- Generator: Adobe Illustrator 24.2.3, SVG Export Plug-In . SVG Version: 6.00 Build 0)  -->
<svg version="1.1" id="Слой_1" xmlns="http://www.w3.org/2000/svg" xmlns:xlink="http://www.w3.org/1999/xlink" x="0px" y="0px"
	 viewBox="0 0 1261.8 327.6" style="enable-background:new 0 0 1261.8 327.6;" xml:space="preserve">
<style type="text/css">
	.st0{fill-rule:evenodd;clip-rule:evenodd;fill:#0000FC;}
	.st1{fill-rule:evenodd;clip-rule:evenodd;fill:#0000FF;}
	.st2{fill-rule:evenodd;clip-rule:evenodd;fill:#2CA329;}
	.st3{clip-path:url(#SVGID_2_);}
	.st4{fill-rule:evenodd;clip-rule:evenodd;fill:#FFFFFF;}
	.st5{clip-path:url(#SVGID_4_);}
	.st6{clip-path:url(#SVGID_6_);}
</style>
<g>
	<defs>
		<rect id="SVGID_1_" x="-7.1" y="-4.1" width="1268.9" height="342.1"/>
	</defs>
	<clipPath id="SVGID_2_">
		<use xlink:href="#SVGID_1_"  style="overflow:visible;"/>
	</clipPath>
	<g class="st3">
		<path class="st4" d="M285.6,265.5v7.1c-29.7,33.9-73.5,55.4-122.3,55.4C73.7,328,1.1,255.8,1.1,166.7C1.1,77.6,73.7,5.3,163.3,5.3
			c48.8,0,92.6,21.5,122.3,55.4v7.1C256.8,32.2,212.7,9.3,163.3,9.3C76.4,9.3,6,79.8,6,166.7C6,253.6,76.4,324,163.3,324
			C212.7,324,256.8,301.2,285.6,265.5z M285.6,240.9v16.8c-27.7,36.6-71.8,60.2-121.4,60.2c-83.9,0-151.9-67.6-151.9-150.9
			c0-83.3,68-150.9,151.9-150.9c49.6,0,93.7,23.6,121.4,60.2v17.5C260.5,52.8,215,25.5,163,25.5C83.8,25.5,19.6,89,19.6,167.3
			c0,78.4,64.2,141.9,143.4,141.9C215,309.2,260.5,281.8,285.6,240.9z"/>
		<path class="st4" d="M115.8,217.6l13.5-0.3l-0.8-69.6l75.8,69.7l8.4,0l0-88.3l-12.7-0.1l0,68.8l-75.7-68.6h-8.5V217.6z"/>
		<path class="st4" d="M480.5,156.5h59.5v50.1h-59.5V156.5z M466.1,166.7c0,8.3-1,38.4,2.1,44.7c2,4,6,6.3,11.5,6.3h61.2
			c3.7,0,8.7-2,10.4-4c1.9-2.3,3.2-7.2,3.2-11.3v-41.6c0-14.6-8.9-16.1-22.1-16.1h-44.2C469.9,144.6,466.1,148.4,466.1,166.7
			L466.1,166.7z"/>
		<path class="st4" d="M1169.6,142.7h74.1v60.6h-74.1V142.7z M1151.6,155c0,10-1.3,46.4,2.6,54c2.5,4.9,7.5,7.6,14.4,7.6h76.2
			c4.6,0,10.8-2.4,13-4.9c2.4-2.8,4-8.6,4-13.6v-50.3c0-17.6-11.1-19.5-27.5-19.5h-55.1C1156.5,128.3,1151.6,133,1151.6,155
			L1151.6,155z"/>
		<path class="st4" d="M263.1,156.5h59.5v50.1h-59.5V156.5z M248.6,166.7c0,8.3-1,38.4,2.1,44.7c2,4,6,6.3,11.5,6.3h61.2
			c3.7,0,8.7-2,10.4-4c1.9-2.3,3.2-7.2,3.2-11.3v-41.6c0-14.6-8.9-16.1-22.1-16.1h-44.2C252.5,144.6,248.6,148.4,248.6,166.7
			L248.6,166.7z"/>
		<path class="st4" d="M682,217.6h73.1v-11h-59.5v-21.2h35.7v-11h-35.7v-17.8h60.2v-11.9H682V217.6z"/>
		<path class="st4" d="M1041.1,216.6h87.5v-13.3h-71.2v-25.7h42.7v-13.3h-42.7v-21.6h72v-14.4h-88.3V216.6z"/>
		<path class="st4" d="M779,159.9v43.3c0,9.8,4.6,14.4,14.5,14.4h50.2c14.1,0,13.6-14.4,13.6-25.3l-14.5-2.8v17h-50.2v-50.1h50.2
			v15.3l14-3c0-7,0.3-15.4-2.7-19.3c-5.5-7.3-41-4.9-52.9-4.9C788.1,144.6,779,145.8,779,159.9z"/>
		<path class="st4" d="M571.5,142h40v75.6h15.3V142h40v-12.7h-95.2V142z"/>
		<path class="st4" d="M398.1,217.6h11l39.1-73.1h-13.6L404,202.3l-33.2-57.8l-13.3,0.3L398.1,217.6z"/>
		<path class="st4" d="M916,146.5c0,84.8-10.2,70.3,85.6,70.3c20.1,0,15.4-25.4,15.4-48.4h-52.7v13.2h35.1v22h-65.9v-59.4h65.9v11
			l17.6-2.8c2.1-31.1-18.5-21.2-85.8-22.2C920.9,130.4,916,136.3,916,146.5z"/>
	</g>
</g>
</svg>
